<svg width="310" height="311" viewBox="0 0 310 311" fill="none" xmlns="http://www.w3.org/2000/svg">
<path d="M252.07 310.34H57.64C25.82 310.34 0.019989 284.54 0.019989 252.72V58.29C0.019989 26.47 25.82 0.670044 57.64 0.670044H252.07C283.89 0.670044 309.69 26.47 309.69 58.29V252.72C309.69 284.54 283.89 310.34 252.07 310.34Z" fill="#020036"/>
<path d="M112.08 142.42L94.99 142.78C91.75 142.85 87.92 140.69 86.42 137.96L61.61 92.6999L78.7 92.3399C81.94 92.2699 85.77 94.43 87.27 97.16L112.08 142.42Z" fill="url(#paint0_linear_2010_1495)"/>
<path d="M198.48 142.33L215.57 142.4C218.81 142.41 222.61 140.19 224.06 137.43L248.1 91.76L231 91.7C227.76 91.69 223.96 93.9101 222.51 96.6701L198.48 142.33Z" fill="url(#paint1_linear_2010_1495)"/>
<path d="M148.24 103.7L136.01 103.96C133.69 104.01 130.95 102.46 129.88 100.51L112.13 68.12L124.36 67.8599C126.68 67.8099 129.42 69.36 130.49 71.31L148.24 103.7Z" fill="url(#paint2_linear_2010_1495)"/>
<path d="M161.42 103.9L173.65 103.95C175.97 103.96 178.69 102.37 179.72 100.39L196.92 67.71L184.69 67.6601C182.37 67.6501 179.65 69.24 178.62 71.22L161.42 103.9Z" fill="url(#paint3_linear_2010_1495)"/>
<path d="M197.14 149.75L179.43 244.34C179 246.67 177.29 248.59 175 249.2C174.02 249.47 172.99 249.94 171.92 250.7C170.8 251.5 169.93 252.53 169.34 253.73C169.31 253.79 169.28 253.85 169.25 253.92C168.29 255.94 165.77 257.63 163.54 257.63H147.06C144.83 257.63 142.31 255.94 141.35 253.92C141.32 253.86 141.29 253.8 141.26 253.73C140.66 252.54 139.79 251.5 138.68 250.7C137.61 249.94 136.58 249.46 135.6 249.2C133.31 248.59 131.6 246.67 131.17 244.34L113.46 149.75C112.74 145.9 115.7 142.33 119.62 142.33H190.98C194.9 142.33 197.86 145.9 197.14 149.75Z" fill="url(#paint4_linear_2010_1495)"/>
<defs>
<linearGradient id="paint0_linear_2010_1495" x1="18.0023" y1="7.28061" x2="175.903" y2="260.227" gradientUnits="userSpaceOnUse">
<stop stop-color="#2538F9"/>
<stop offset="0.5142" stop-color="#F03EED"/>
<stop offset="0.9987" stop-color="#00FFFF"/>
</linearGradient>
<linearGradient id="paint1_linear_2010_1495" x1="116.414" y1="-54.1523" x2="274.314" y2="198.795" gradientUnits="userSpaceOnUse">
<stop stop-color="#2538F9"/>
<stop offset="0.5142" stop-color="#F03EED"/>
<stop offset="0.9987" stop-color="#00FFFF"/>
</linearGradient>
<linearGradient id="paint2_linear_2010_1495" x1="63.4072" y1="-21.063" x2="221.307" y2="231.884" gradientUnits="userSpaceOnUse">
<stop stop-color="#2538F9"/>
<stop offset="0.5142" stop-color="#F03EED"/>
<stop offset="0.9987" stop-color="#00FFFF"/>
</linearGradient>
<linearGradient id="paint3_linear_2010_1495" x1="98.7057" y1="-43.0975" x2="256.605" y2="209.849" gradientUnits="userSpaceOnUse">
<stop stop-color="#2538F9"/>
<stop offset="0.5142" stop-color="#F03EED"/>
<stop offset="0.9987" stop-color="#00FFFF"/>
</linearGradient>
<linearGradient id="paint4_linear_2010_1495" x1="38.4434" y1="-5.47961" x2="196.343" y2="247.467" gradientUnits="userSpaceOnUse">
<stop stop-color="#2538F9"/>
<stop offset="0.5142" stop-color="#F03EED"/>
<stop offset="0.9987" stop-color="#00FFFF"/>
</linearGradient>
</defs>
</svg>
